<?xml version="1.0" encoding="UTF-8"?>
<svg id="Layer_1" xmlns="http://www.w3.org/2000/svg" xmlns:xlink="http://www.w3.org/1999/xlink" version="1.1" viewBox="0 0 141 76">
  <!-- Generator: Adobe Illustrator 30.0.0, SVG Export Plug-In . SVG Version: 2.1.1 Build 123)  -->
  <defs>
    <style>
      .st0, .st1, .st2 {
        fill: none;
      }

      .st1 {
        stroke: #f2ff63;
      }

      .st1, .st2 {
        stroke-linecap: round;
        stroke-width: 3px;
      }

      .st2 {
        stroke: #81c1ff;
      }

      .st3 {
        clip-path: url(#clippath);
      }
    </style>
    <clipPath id="clippath">
      <rect class="st0" width="141" height="76"/>
    </clipPath>
  </defs>
  <g class="st3">
    <g>
      <path class="st1" d="M59-3c-1.3.8-1.6,1-2.6,1.7-.6.5-1.3,1.1-1.7,1.4-.2.2-.5.5-.8.9"/>
      <path class="st1" d="M4,2c0,.5.5,1.6,1.2,2.3.1.2.2.2.3.3.1,0,.3.2.5.4"/>
      <path class="st1" d="M10,1c.7.5,1.9,1.5,2.2,2,.3.8.7,2.1.7,2.4,0,.2,0,.3.1.6"/>
      <path class="st1" d="M60,2c-.4.6-.8,1.3-1.1,1.7-.2.3-.5.8-.8,1.1-.5.6-.7.7-.8.8,0,0-.1.1-.3.3"/>
      <path class="st2" d="M65.8-12.6c-1.7,0-3-.1-4.8-.3-2.3-.2-4.1,0-5.2.6-3.5,1.6-4.4,2.8-5.7,3.9-.7.7-1.5,1.4-2.1,2.2-.7.9-1.6,1.9-2.1,2.5-.9,1.2-2.4,3.8-3.1,5-.5.9-1.2,3.3-1.5,4.8-.2.8-.2,2-.3,5.7,0,1.6.6,3.1,1.4,5,.4,1,1.2,2.1,2.6,3.5.8.8,1.7,1.2,2.6,1.8,1.2.8,4,1,5.9.6.9-.2,2-1,3.1-1.7,1.8-1.1,2.7-2.1,4.9-4.4,1.1-1.1,3.1-3.9,4.5-5.7.8-1,1.3-2.1,1.9-3.3.5-.9.9-1.7,1.2-2.4.3-.7.7-1.4,1-2.2.3-.7.7-1.3,1-2.1.3-.8.5-1.6.7-2.5.2-.9.3-4.3.2-6.3,0-.8-.8-1.6-1.3-2.3-.5-.7-1.3-1.1-1.9-1.4-.7-.2-1.4-.3-2-.4-.3,0-.4,0-.8-.1"/>
      <path class="st2" d="M18-6.3c-1.3-.5-4.5-1.8-5.9-2.2-2.2-.6-5.5-1.3-6.8-1.4-3.8-.4-6.6,1.3-7.5,2.1-1.2,1.1-1.9,3.5-2.2,4.3-.2.4-.3,1.2-.5,3.4-.1,1.5,0,3.8.2,6,.4,4.2,1.2,6.5,1.5,7.2.8,1.7,1.5,2.5,2.1,3.4.7.9,1.5,1.9,2.2,2.4.6.5,1.2,1.1,1.9,1.6.6.5,1.6.9,2.4,1.3,1.1.6,2.4,1,4.5,1.3,1.1.1,3.1,0,4.8-.2,4.8-.5,5.8-1.6,7-2.6,1.7-1.3,2-2.4,2.6-3.7.9-1.9,1.5-5.3,1.7-7.6.4-4.9-.4-6.2-.6-7.3-.2-.9-.7-1.9-1.2-2.8-.3-.7-.8-1.4-1.4-2-.6-.7-1.4-.9-2-1.2-.7-.3-1.4-.7-2-1-.2,0-.3-.1-.5-.2-.2,0-.3-.1-.5-.2"/>
      <path class="st1" d="M51,7v5"/>
      <path class="st1" d="M10,12h4"/>
      <path class="st1" d="M73,41.1s0,0,.2,0c1.2,1,3.1,3.1,3.5,3.6.1.1.2.3.3.4"/>
      <path class="st2" d="M82.2,32.7c-1.1-3.5-1.8-4.5-2.8-5.2-1.2-.9-2.4-1.6-4-2.3-.8-.3-3.6-.3-7.5-.2-2.7,0-4.1,1.1-7.1,3.6-1.1,1-1.4,1.9-2.8,4.5-.7,1.2-.9,2.4-1.8,7-.4,2-.1,4.9,0,6.8.3,3.8,1.3,4.5,2.5,6.3.6.9,1,1.7,1.8,2.8,1.3,1.7,3.1,3,6.6,4.8,3,1.5,4.6,1,8.6,1.1,2,0,4.4-1.3,5.7-1.8,1.4-.6,2.8-1.2,4.2-2.2.9-.7,1.6-1.6,2.2-2.6.6-.9.8-2,1-3.7.6-4.2-.3-5.1-.6-6.1-.3-.9-.6-2.1-.9-3.3-.2-.9-.6-1.6-.9-2.4-.3-.8-.8-1.5-1.2-2.3-.4-.7-.6-1.5-.9-2.5-.3-.9-.8-1.6-1-2.4-.1-.9-.3-1.5-.5-1.9-.1-.2-.3-.4-.4-.8"/>
      <path class="st1" d="M66,41c0,1.7,0,2.9.7,4.4.3.4.5.7.8,1,.1.1.2.2.5.6"/>
      <path class="st1" d="M73,50c.4,0,1.6.5,2.4,1.1.3.2.6.4,1,.7.2.1.3.2.6.3"/>
      <path class="st1" d="M11.6,70.8c0,0,.1,0,.1.1-.6,1.4-2.3,3.7-2.6,4.3,0,.1-.2.3-.3.4"/>
      <path class="st1" d="M10,64c-1.6.4-2.8.7-4.1,1.8-.3.4-.5.7-.8,1-.1.1-.2.3-.5.6"/>
      <path class="st1" d="M2.9,72.9c0,.4-.1,1.7-.5,2.6-.1.4-.2.7-.4,1.1,0,.2-.1.4-.1.7"/>
      <path class="st1" d="M26,40c0,.2.2.6.3,1,.1.2.3.4.4.5,0,0,.1.2.2.5"/>
      <path class="st1" d="M33,43c.1,0,.3,0,.3,0,.2,0,.2-.3.3-.5.1-.1.2-.2.2-.3,0,0,0,0,0-.2"/>
      <path class="st2" d="M33.2,32c-1.7-.8-3.4-1.6-4.3-1.8-1.8-.5-5,0-6.2.7-1,.5-1.6,1.3-2.3,2-.6.6-1.1,1.5-1.6,2.8-.7,1.9-.7,2.9-.8,6,0,1.4.4,3.1,1.9,7.5,1.2,3.4,2.8,4.8,3.5,5.7.6.8,1.6,1.5,2.2,2.1.7.6,1.6.9,2.5,1.3.9.4,2.5.8,4.9.8,1.1,0,2.5-1.1,3.6-1.8,1-.6,2.7-2.3,3.8-3.6.9-1.1,1.8-3.2,2.2-4.8.2-.9.3-1.9.3-4.2,0-1.2-.4-2.1-.8-3.2-.4-1.3-.6-2-.8-2.6-.2-.7-.6-1.3-1.1-2-.7-1.1-1.9-1.9-2.6-2.3-.7-.5-1.3-.9-2-1.2-.2,0-.3-.2-.5-.3-.2,0-.3-.1-.7-.4"/>
      <path class="st1" d="M31,50c.1,0,.3,0,.3,0,.2,0,.2-.3.3-.5.1-.1.2-.2.2-.3,0,0,0,0,0-.2"/>
      <path class="st1" d="M49,76c0,.2.2.6.3,1,.1.2.3.4.4.5,0,0,.1.2.2.5"/>
      <path class="st1" d="M116,67c0,0,.2.3.3.5.1,0,.3.2.4.3,0,0,.1,0,.2.2"/>
      <path class="st1" d="M123,70c.1,0,.3,0,.3,0,.2,0,.2-.3.3-.5.1-.1.2-.2.2-.3,0,0,0,0,0-.2"/>
      <path class="st2" d="M123.2,58c-1.7-.8-3.4-1.6-4.3-1.8-1.8-.5-5,0-6.2.7-1,.5-1.6,1.3-2.3,2-.6.6-1.1,1.5-1.6,2.8-.7,1.9-.7,2.9-.8,6,0,1.4.4,3.1,1.9,7.5,1.2,3.4,2.8,4.8,3.5,5.7.6.8,1.6,1.5,2.2,2.1.7.6,1.6.9,2.5,1.3.9.4,2.5.8,4.9.8,1.1,0,2.5-1.1,3.6-1.8,1-.6,2.7-2.3,3.8-3.6.9-1.1,1.8-3.2,2.2-4.8.2-.9.3-1.9.3-4.2,0-1.2-.4-2.1-.8-3.2-.4-1.3-.6-2-.8-2.6-.2-.7-.6-1.3-1.1-2-.7-1.1-1.9-1.9-2.6-2.3-.7-.5-1.3-.9-2-1.2-.2,0-.3-.2-.5-.3-.2,0-.3-.1-.7-.4"/>
      <path class="st1" d="M121,76h0v-1"/>
      <path class="st2" d="M14.8,57.4c-1.7,0-3-.1-4.8-.3-2.3-.2-4.1,0-5.2.6-3.5,1.6-4.4,2.8-5.7,3.9-.7.7-1.5,1.4-2.1,2.2-.7.9-1.6,1.9-2.1,2.5-.9,1.2-2.4,3.8-3.1,5-.5.9-1.2,3.3-1.5,4.8-.2.8-.2,2-.3,5.7,0,1.6.6,3.1,1.4,5,.4,1,1.2,2.1,2.6,3.5.8.8,1.7,1.2,2.6,1.8,1.2.8,4,1,5.9.6.9-.2,2-1,3.1-1.7,1.8-1.1,2.7-2.1,4.9-4.4,1.1-1.1,3.1-3.9,4.5-5.7.8-1,1.3-2.1,1.9-3.3.5-.9.9-1.7,1.2-2.4.3-.7.7-1.4,1-2.2.3-.7.7-1.3,1-2.1.3-.8.5-1.6.7-2.5.2-.9.3-4.3.2-6.3,0-.8-.8-1.6-1.3-2.3-.5-.7-1.3-1.1-1.9-1.4-.7-.2-1.4-.3-2-.4-.3,0-.4,0-.8-.1"/>
      <path class="st2" d="M62.4,71.2c-1.2-2.4-2.3-3.1-3-3.5-.7-.3-1.4-.7-2.7-1.1-1.3-.4-2.3-.5-3.5-.6-1.2,0-2.2,0-4,.7-1.8.8-3.8,3-4.5,3.7-.7.7-1.3,1.2-1.9,1.9-1,1.2-1.6,2.3-2.6,4-.7,1.3-1.3,2.6-1.8,3.5-.8,1.7-.8,2.8-1.1,4.3-.1.6-.1,1.1-.2,2.1-.2,2.1.1,4.3.6,6.2.4,1.8,1,3,1.3,3.9,1.1,3.3,2.2,4.5,3.9,6.8,1.1,1.5,2.1,1.9,3,2.4.9.6,1.8,1.1,3.8,2.1,1.4.7,3.2,1.1,4.5,1.2,1.4,0,4.2-.3,5.5-.9,1.7-.8,3.3-2.3,4.1-3.2.7-.8,1.3-1.5,2.1-2.6,1.4-1.9,2.6-5.2,3.2-7.1.2-.8.3-1.8.5-2.6.3-1.1.3-2.1.4-2.9,0-.4.1-2.6,0-5.9,0-2.2-.6-3.1-.8-4.1-.4-1.5-.8-2.2-1.4-2.9-.8-1-1.3-1.6-1.8-2.2-.5-.6-1.2-1.1-1.8-1.5-.7-.4-1.4-.9-1.9-1.5-.4-.7-.6-1.2-.8-1.5,0-.2-.1-.3-.2-.5"/>
    </g>
  </g>
</svg>