<?xml version="1.0" encoding="UTF-8"?>
<svg id="Layer_1" xmlns="http://www.w3.org/2000/svg" xmlns:xlink="http://www.w3.org/1999/xlink" version="1.1" viewBox="0 0 70 76">
  <!-- Generator: Adobe Illustrator 30.0.0, SVG Export Plug-In . SVG Version: 2.1.1 Build 123)  -->
  <defs>
    <style>
      .st0, .st1 {
        fill: none;
      }

      .st1 {
        stroke: #5fe5ad;
        stroke-width: 2px;
      }

      .st2 {
        clip-path: url(#clippath);
      }
    </style>
    <clipPath id="clippath">
      <rect class="st0" width="70" height="76"/>
    </clipPath>
  </defs>
  <g class="st2">
    <g>
      <path class="st1" d="M27.9-2.4c2.2,0,3.7,1.4,3.7,2.7,0,1.3-1.4,2.7-3.7,2.7-2.2,0-3.7-1.4-3.7-2.7,0-1.3,1.4-2.7,3.7-2.7Z"/>
      <path class="st1" d="M22.4-14.3c3.9.4,9.7-2.4,12.1.6,4.5,5.6,11.4,5.4,14.9,12.4,2.3,4.6,3.8,8.8.9,13.1-3.5,5.2-9.3-.9-15.9,1.9-6.5,2.8-9,.1-15.1,0-4.2,0-5.3-2.3-9.2-3.7-2.9-1-4.9-2.6-5.6-5.6C3.8.9,6.9-.8,8.4-4c1.5-3.3,1-6.1,3.7-8.4,3.1-2.6,6.2-2.3,10.3-1.9Z"/>
      <path class="st1" d="M27.9,3.1l-1.9,12.1"/>
      <path class="st1" d="M25.1,1.3L5.5,5.9"/>
      <path class="st1" d="M31.6-.6l13.1-5.6"/>
      <path class="st1" d="M30.7,2.2l20.5,9.3"/>
      <path class="st1" d="M27.9-2.4c2.2,0,3.7,1.4,3.7,2.7,0,1.3-1.4,2.7-3.7,2.7-2.2,0-3.7-1.4-3.7-2.7,0-1.3,1.4-2.7,3.7-2.7Z"/>
      <path class="st1" d="M22.4-14.3c3.9.4,9.7-2.4,12.1.6,4.5,5.6,11.4,5.4,14.9,12.4,2.3,4.6,3.8,8.8.9,13.1-3.5,5.2-9.3-.9-15.9,1.9-6.5,2.8-9,.1-15.1,0-4.2,0-5.3-2.3-9.2-3.7-2.9-1-4.9-2.6-5.6-5.6C3.8.9,6.9-.8,8.4-4c1.5-3.3,1-6.1,3.7-8.4,3.1-2.6,6.2-2.3,10.3-1.9Z"/>
      <path class="st1" d="M27.9,3.1l-1.9,12.1"/>
      <path class="st1" d="M25.1,1.3L5.5,5.9"/>
      <path class="st1" d="M31.6-.6l13.1-5.6"/>
      <path class="st1" d="M30.7,2.2l20.5,9.3"/>
      <path class="st1" d="M63.4,46.1c-.7,3.5-1.4,5.7-3.7,8.4-2,2.4-3.5,3.8-6.5,4.7-4.3,1.2-7.5-.3-11.2-2.8-2.1-1.4-2.4-3.5-4.7-4.7-2.3-1.2-4.1,0-6.5-.9-2-.8-3.3-1.2-4.7-2.8-2.4-2.8-2-5.8-.9-9.3.5-1.6,1.1-2.3,1.9-3.7,1.5-2.9,1.9-4.8,3.7-7.5,1.3-1.9,2-3.1,3.7-4.7,2.7-2.3,3.5-3.8,8.4-3.7,4.9,0,8.9,0,11.2,5.6s6.5,4.8,8.4,9.3c1.8,4.4,1.9,7.5.9,12.1ZM63.4,46.1l-14.9-2.8M57.8,29.3l-10.3,9.3"/>
      <path class="st1" d="M43.8,44.2l-5.6,7.5"/>
      <path class="st1" d="M43.8,39.6l-7.5-17.7"/>
      <path class="st1" d="M42.8,42.4l-17.7-.9"/>
      <circle class="st1" cx="45.6" cy="41.4" r="2.7"/>
      <path class="st1" d="M29.7,68.6c2.2,0,3.7,1.4,3.7,2.7,0,1.3-1.4,2.7-3.7,2.7s-3.7-1.4-3.7-2.7c0-1.3,1.4-2.7,3.7-2.7Z"/>
      <path class="st1" d="M24.3,56.7c3.9.4,9.7-2.4,12.1.6,4.5,5.6,11.4,5.4,14.9,12.4,2.3,4.6,3.8,8.8.9,13.1-3.5,5.2-9.3-.9-15.9,1.9-6.5,2.8-9,.1-15.1,0-4.2,0-5.3-2.3-9.2-3.7-2.9-1-4.9-2.6-5.6-5.6-.8-3.5,2.3-5.1,3.7-8.4,1.5-3.3,1-6.1,3.7-8.4,3.1-2.6,6.2-2.3,10.3-1.9Z"/>
      <path class="st1" d="M29.7,74.1l-1.9,12.1"/>
      <path class="st1" d="M26.9,72.3l-19.6,4.7"/>
      <path class="st1" d="M27.9,69.5l-9.3-13.1"/>
      <path class="st1" d="M33.5,70.4l13.1-5.6"/>
      <path class="st1" d="M32.5,73.2l20.5,9.3"/>
      <path class="st1" d="M63.4,46.1c-.7,3.5-1.4,5.7-3.7,8.4-2,2.4-3.5,3.8-6.5,4.7-4.3,1.2-7.5-.3-11.2-2.8-2.1-1.4-2.4-3.5-4.7-4.7-2.3-1.2-4.1,0-6.5-.9-2-.8-3.3-1.2-4.7-2.8-2.4-2.8-2-5.8-.9-9.3.5-1.6,1.1-2.3,1.9-3.7,1.5-2.9,1.9-4.8,3.7-7.5,1.3-1.9,2-3.1,3.7-4.7,2.7-2.3,3.5-3.8,8.4-3.7,4.9,0,8.9,0,11.2,5.6s6.5,4.8,8.4,9.3c1.8,4.4,1.9,7.5.9,12.1ZM63.4,46.1l-14.9-2.8M57.8,29.3l-10.3,9.3"/>
      <path class="st1" d="M43.8,44.2l-5.6,7.5"/>
      <path class="st1" d="M43.8,39.6l-7.5-17.7"/>
      <path class="st1" d="M42.8,42.4l-17.7-.9"/>
      <circle class="st1" cx="45.6" cy="41.4" r="2.7"/>
      <circle class="st1" cx="8.3" cy="35.8" r="2.7"/>
      <path class="st1" d="M8.3,38.6v14"/>
      <path class="st1" d="M11.1,36.8l10.3,5.6"/>
      <path class="st1" d="M10.1,34l3.7-13.1"/>
      <path class="st1" d="M6.4,34L-1.1,22.8"/>
      <path class="st1" d="M6.4,37.7l-11.2,3.7"/>
      <path class="st1" d="M29.7,68.6c2.2,0,3.7,1.4,3.7,2.7,0,1.3-1.4,2.7-3.7,2.7s-3.7-1.4-3.7-2.7c0-1.3,1.4-2.7,3.7-2.7Z"/>
      <path class="st1" d="M24.3,56.7c3.9.4,9.7-2.4,12.1.6,4.5,5.6,11.4,5.4,14.9,12.4,2.3,4.6,3.8,8.8.9,13.1-3.5,5.2-9.3-.9-15.9,1.9-6.5,2.8-9,.1-15.1,0-4.2,0-5.3-2.3-9.2-3.7-2.9-1-4.9-2.6-5.6-5.6-.8-3.5,2.3-5.1,3.7-8.4,1.5-3.3,1-6.1,3.7-8.4,3.1-2.6,6.2-2.3,10.3-1.9Z"/>
      <path class="st1" d="M29.7,74.1l-1.9,12.1"/>
      <path class="st1" d="M26.9,72.3l-19.6,4.7"/>
      <path class="st1" d="M27.9,69.5l-9.3-13.1"/>
      <path class="st1" d="M33.5,70.4l13.1-5.6"/>
      <path class="st1" d="M32.5,73.2l20.5,9.3"/>
      <path class="st1" d="M18.5,48c3.4-5,2.4-9.1,3.7-14.9,1.4-5.9-7.5-12.1-7.5-12.1-3.7-1.9-3.3-1.7-5.6-1.9-3.8-.4-7.4,1.7-9.3,2.8-4.1,2.4-4.2,6.7-5.6,11.2-.8,2.8-.8,5.1.9,7.5,2.7,3.6-.2,9.2,2.8,11.2,3,2,9.1,1.1,14.9,1.9s3.8-3.1,5.6-5.6Z"/>
      <path class="st1" d="M1.7,83.5c-.7,3.5-1.4,5.7-3.7,8.4-2,2.4-3.5,3.8-6.5,4.7-4.3,1.2-7.5-.3-11.2-2.8-2.1-1.4-2.4-3.5-4.7-4.7-2.3-1.2-4.1,0-6.5-.9-2-.8-3.3-1.2-4.7-2.8-2.4-2.8-2-5.8-.9-9.3.5-1.6,1.1-2.3,1.9-3.7,1.5-2.9,1.9-4.8,3.7-7.5,1.3-1.9,2-3.1,3.7-4.7,2.7-2.3,3.5-3.8,8.4-3.7,4.9,0,8.9,0,11.2,5.6,2.3,5.5,6.5,4.8,8.4,9.3,1.8,4.4,1.9,7.5.9,12.1ZM1.7,83.5l-14.9-2.8M-3.9,66.7l-10.3,9.3"/>
      <path class="st1" d="M1.7,83.5c-.7,3.5-1.4,5.7-3.7,8.4-2,2.4-3.5,3.8-6.5,4.7-4.3,1.2-7.5-.3-11.2-2.8-2.1-1.4-2.4-3.5-4.7-4.7-2.3-1.2-4.1,0-6.5-.9-2-.8-3.3-1.2-4.7-2.8-2.4-2.8-2-5.8-.9-9.3.5-1.6,1.1-2.3,1.9-3.7,1.5-2.9,1.9-4.8,3.7-7.5,1.3-1.9,2-3.1,3.7-4.7,2.7-2.3,3.5-3.8,8.4-3.7,4.9,0,8.9,0,11.2,5.6,2.3,5.5,6.5,4.8,8.4,9.3,1.8,4.4,1.9,7.5.9,12.1ZM1.7,83.5l-14.9-2.8M-3.9,66.7l-10.3,9.3"/>
      <path class="st1" d="M1.7,83.5c-.7,3.5-1.4,5.7-3.7,8.4-2,2.4-3.5,3.8-6.5,4.7-4.3,1.2-7.5-.3-11.2-2.8-2.1-1.4-2.4-3.5-4.7-4.7-2.3-1.2-4.1,0-6.5-.9-2-.8-3.3-1.2-4.7-2.8-2.4-2.8-2-5.8-.9-9.3.5-1.6,1.1-2.3,1.9-3.7,1.5-2.9,1.9-4.8,3.7-7.5,1.3-1.9,2-3.1,3.7-4.7,2.7-2.3,3.5-3.8,8.4-3.7,4.9,0,8.9,0,11.2,5.6,2.3,5.5,6.5,4.8,8.4,9.3,1.8,4.4,1.9,7.5.9,12.1ZM1.7,83.5l-14.9-2.8M-3.9,66.7l-10.3,9.3"/>
    </g>
  </g>
</svg>