<?xml version="1.0" encoding="UTF-8"?>
<svg id="Layer_1" xmlns="http://www.w3.org/2000/svg" xmlns:xlink="http://www.w3.org/1999/xlink" version="1.1" viewBox="0 0 120 76">
  <!-- Generator: Adobe Illustrator 30.0.0, SVG Export Plug-In . SVG Version: 2.1.1 Build 123)  -->
  <defs>
    <style>
      .st0, .st1 {
        fill: none;
      }

      .st1 {
        stroke: #ffb155;
        stroke-width: 2px;
      }

      .st2 {
        clip-path: url(#clippath);
      }
    </style>
    <clipPath id="clippath">
      <rect class="st0" width="120" height="76"/>
    </clipPath>
  </defs>
  <g class="st2">
    <g>
      <path class="st1" d="M-15.1-20.4L-9.1-1.9M-9.1-1.9l-.7-18.1M-9.1-1.9l1.2.2L-2.5-20.1"/>
      <path class="st1" d="M92-3.6l11.9,15.3M103.8,11.7l-6.7-16.9M103.8,11.7l1.2-.2-1.1-19.1"/>
      <path class="st1" d="M37.5-2.7l12.5,14.8M50,12.1l-7.4-16.6M50,12.1l1.2-.3-1.9-19"/>
      <path class="st1" d="M67.4,6.7l18,7.1M85.5,13.8l-14.4-11.1M85.5,13.8l.9-.8-10.7-15.9"/>
      <path class="st1" d="M18,7.7l15.6,11.5M33.6,19.2l-11.1-14.4M33.6,19.2l1.1-.5L28.4.6"/>
      <path class="st1" d="M-2.1,16.5l11.9,15.3M9.8,31.8L3.1,15M9.8,31.8l1.2-.2-1.1-19.1"/>
      <path class="st1" d="M79.1,23.8l6.6,18.2M85.7,42l-1.3-18.1M85.7,42l1.2.2,4.8-18.5"/>
      <path class="st1" d="M32.4,41.4l19.3,1.9M51.7,43.2l-16.9-6.7M51.7,43.2l.6-1-14.7-12.3"/>
      <path class="st1" d="M-14.9,38.9l6.6,18.2M-8.3,57.1l-1.3-18.1M-8.3,57.1l1.2.2,4.8-18.5"/>
      <path class="st1" d="M96.3,51.2l14.4,13M110.6,64.2l-9.6-15.4M110.6,64.2l1.1-.4-4.4-18.6"/>
      <path class="st1" d="M55,55.3l17.4,8.4M72.5,63.8l-13.5-12.1M72.5,63.8l1-.7-9.5-16.6"/>
      <path class="st1" d="M23.5,50.2l6.1,18.4M29.6,68.6l-.7-18.1M29.6,68.6l1.2.2,5.3-18.4"/>
      <path class="st1" d="M2.2,66.3l14.4,13M16.6,79.3l-9.6-15.4M16.6,79.3l1.1-.4-4.4-18.6"/>
      <path class="st1" d="M76.1,72.9l12.5,14.8M88.6,87.7l-7.4-16.6M88.6,87.7l1.2-.3-1.9-19"/>
      <path class="st1" d="M106.1,82.2l18,7.1M124.1,89.3l-14.4-11.1M124.1,89.3l.9-.8-10.7-15.9"/>
      <path class="st1" d="M56.6,83.3l15.6,11.5M72.2,94.8l-11.1-14.4M72.2,94.8l1.1-.5-6.3-18.1"/>
    </g>
  </g>
</svg>